<svg width="1241" height="351" xmlns="http://www.w3.org/2000/svg" xmlns:xlink="http://www.w3.org/1999/xlink" overflow="hidden"><defs><clipPath id="clip0"><rect x="0" y="0" width="1280" height="720"/></clipPath></defs><g clip-path="url(#clip0)"><rect x="0" y="0" width="1280" height="720" fill="#FFFFFF"/><rect x="0.500053" y="0.500061" width="47" height="349" stroke="#2F528F" stroke-width="1.33333" stroke-miterlimit="8" fill="#EDEDED"/><text font-family="Calibri,Calibri_MSFontService,sans-serif" font-weight="400" font-size="24" transform="matrix(-1.83697e-16 -1 1 -1.83697e-16 31.2667 201)">Input</text><rect x="1191.5" y="0.5" width="48" height="349" stroke="#2F528F" stroke-width="1.33333" stroke-miterlimit="8" fill="#EDEDED"/><text font-family="Calibri,Calibri_MSFontService,sans-serif" font-weight="400" font-size="24" transform="matrix(-1.83697e-16 -1 1 -1.83697e-16 1222.64 209)">Output</text><rect x="216.5" y="261.5" width="137" height="40" stroke="#2F528F" stroke-width="1.33333" stroke-miterlimit="8" fill="#A9D18E"/><text fill="#FFFFFF" font-family="Calibri,Calibri_MSFontService,sans-serif" font-weight="400" font-size="13" transform="translate(244.448 285)">Dropout (0.15)</text><rect x="216.5" y="24.5001" width="137" height="41" stroke="#2F528F" stroke-width="1.33333" stroke-miterlimit="8" fill="#8FAADC"/><text fill="#FFFFFF" font-family="Calibri,Calibri_MSFontService,sans-serif" font-weight="400" font-size="12" transform="translate(254.785 34)">Convolution<tspan font-size="12" x="-26.92" y="15">In = 48, Out = 48, Size = </tspan><tspan font-size="12" x="0.833344" y="29">3, Stride = 1</tspan></text><rect x="215.5" y="142.5" width="137" height="40" stroke="#2F528F" stroke-width="1.33333" stroke-miterlimit="8" fill="#FFD966"/><text fill="#FFFFFF" font-family="Calibri,Calibri_MSFontService,sans-serif" font-weight="400" font-size="13" transform="translate(251.117 158)">Batch <tspan font-size="13" x="33.8333" y="0">Norm</tspan><tspan font-size="13" x="-12.42" y="16">In = 48, Out = 48</tspan></text><rect x="216.5" y="198.5" width="137" height="41" stroke="#2F528F" stroke-width="1.33333" stroke-miterlimit="8" fill="#FF9799"/><text fill="#FFFFFF" font-family="Calibri,Calibri_MSFontService,sans-serif" font-weight="400" font-size="13" transform="translate(259.362 214)">Max Pool<tspan font-size="13" x="-24.08" y="16">Stride = 2, Size = 2</tspan></text><rect x="216.5" y="81.5001" width="137" height="41" stroke="#2F528F" stroke-width="1.33333" stroke-miterlimit="8" fill="#F4B183"/><text fill="#FFFFFF" font-family="Calibri,Calibri_MSFontService,sans-serif" font-weight="400" font-size="13" transform="translate(270.363 105)">ReLU</text><rect x="50.5001" y="142.5" width="137" height="40" stroke="#2F528F" stroke-width="1.33333" stroke-miterlimit="8" fill="#F4B183"/><text fill="#FFFFFF" font-family="Calibri,Calibri_MSFontService,sans-serif" font-weight="400" font-size="13" transform="translate(104.202 166)">ReLU</text><rect x="50.5001" y="198.5" width="137" height="41" stroke="#2F528F" stroke-width="1.33333" stroke-miterlimit="8" fill="#FFD966"/><text fill="#FFFFFF" font-family="Calibri,Calibri_MSFontService,sans-serif" font-weight="400" font-size="13" transform="translate(85.9568 215)">Batch Norm<tspan font-size="13" x="-12.42" y="16">In = 48, Out = 48</tspan></text><rect x="50.5001" y="72.5001" width="137" height="50" stroke="#2F528F" stroke-width="1.33333" stroke-miterlimit="8" fill="#8FAADC"/><text fill="#FFFFFF" font-family="Calibri,Calibri_MSFontService,sans-serif" font-weight="400" font-size="13" transform="translate(85.3683 85)">Convolution<tspan font-size="13" x="-22.3333" y="16">In = 3, Out = 48, Size </tspan><tspan font-size="13" x="-4.33334" y="32">= 3, Stride = 1</tspan></text><rect x="382.5" y="142.5" width="137" height="40" stroke="#2F528F" stroke-width="1.33333" stroke-miterlimit="8" fill="#F4B183"/><text fill="#FFFFFF" font-family="Calibri,Calibri_MSFontService,sans-serif" font-weight="400" font-size="13" transform="translate(436.72 166)">ReLU</text><rect x="382.5" y="198.5" width="137" height="41" stroke="#2F528F" stroke-width="1.33333" stroke-miterlimit="8" fill="#FFD966"/><text fill="#FFFFFF" font-family="Calibri,Calibri_MSFontService,sans-serif" font-weight="400" font-size="13" transform="translate(418.475 215)">Batch <tspan font-size="13" x="33.8333" y="0">Norm</tspan><tspan font-size="13" x="-12.42" y="16">In</tspan><tspan font-size="13" x="0.91333" y="16">= 96, Out = 96</tspan></text><rect x="549.5" y="261.5" width="137" height="40" stroke="#2F528F" stroke-width="1.33333" stroke-miterlimit="8" fill="#A9D18E"/><text fill="#FFFFFF" font-family="Calibri,Calibri_MSFontService,sans-serif" font-weight="400" font-size="13" transform="translate(580.953 285)">Dropout (0.3)</text><rect x="549.5" y="142.5" width="137" height="40" stroke="#2F528F" stroke-width="1.33333" stroke-miterlimit="8" fill="#FFD966"/><text fill="#FFFFFF" font-family="Calibri,Calibri_MSFontService,sans-serif" font-weight="400" font-size="13" transform="translate(585.038 158)">Batch Norm<tspan font-size="13" x="-12.42" y="16">In = 96, Out = 96</tspan></text><rect x="549.5" y="198.5" width="137" height="41" stroke="#2F528F" stroke-width="1.33333" stroke-miterlimit="8" fill="#FF9799"/><text fill="#FFFFFF" font-family="Calibri,Calibri_MSFontService,sans-serif" font-weight="400" font-size="13" transform="translate(592.449 215)">Max Pool<tspan font-size="13" x="-24.08" y="16">Stride = 2, Size = 2</tspan></text><rect x="549.5" y="81.5001" width="137" height="41" stroke="#2F528F" stroke-width="1.33333" stroke-miterlimit="8" fill="#F4B183"/><text fill="#FFFFFF" font-family="Calibri,Calibri_MSFontService,sans-serif" font-weight="400" font-size="13" transform="translate(603.451 105)">ReLU</text><rect x="717.5" y="141.5" width="137" height="41" stroke="#2F528F" stroke-width="1.33333" stroke-miterlimit="8" fill="#F4B183"/><text fill="#FFFFFF" font-family="Calibri,Calibri_MSFontService,sans-serif" font-weight="400" font-size="13" transform="translate(771.129 166)">ReLU</text><rect x="717.5" y="198.5" width="137" height="41" stroke="#2F528F" stroke-width="1.33333" stroke-miterlimit="8" fill="#FFD966"/><text fill="#FFFFFF" font-family="Calibri,Calibri_MSFontService,sans-serif" font-weight="400" font-size="13" transform="translate(752.884 214)">Batch <tspan font-size="13" x="33.8334" y="0">Norm</tspan><tspan font-size="13" x="-19.2533" y="16">In = 192, Out = 192</tspan></text><rect x="886.5" y="260.5" width="137" height="41" stroke="#2F528F" stroke-width="1.33333" stroke-miterlimit="8" fill="#A9D18E"/><text fill="#FFFFFF" font-family="Calibri,Calibri_MSFontService,sans-serif" font-weight="400" font-size="13" transform="translate(917.455 285)">Dropout (0.3)</text><rect x="885.5" y="141.5" width="137" height="41" stroke="#2F528F" stroke-width="1.33333" stroke-miterlimit="8" fill="#FFD966"/><text fill="#FFFFFF" font-family="Calibri,Calibri_MSFontService,sans-serif" font-weight="400" font-size="13" transform="translate(921.54 157)">Batch <tspan font-size="13" x="33.8333" y="0">Norm</tspan><tspan font-size="13" x="-19.2534" y="16">In = 192, Out = 192</tspan></text><rect x="886.5" y="198.5" width="137" height="40" stroke="#2F528F" stroke-width="1.33333" stroke-miterlimit="8" fill="#FF9799"/><text fill="#FFFFFF" font-family="Calibri,Calibri_MSFontService,sans-serif" font-weight="400" font-size="13" transform="translate(928.952 214)">Max Pool<tspan font-size="13" x="-24.08" y="16">Stride = 2, Size = 2</tspan></text><rect x="885.5" y="81.5001" width="137" height="40" stroke="#2F528F" stroke-width="1.33333" stroke-miterlimit="8" fill="#F4B183"/><text fill="#FFFFFF" font-family="Calibri,Calibri_MSFontService,sans-serif" font-weight="400" font-size="13" transform="translate(939.953 105)">ReLU</text><path d="M47 38 118.868 38 118.868 65.3881 116.868 65.3881 116.868 39 117.868 40 47 40ZM121.868 64.0548 117.868 72.0548 113.868 64.0548Z" fill="#767171"/><path d="M119 122 119 135.285 117 135.285 117 122ZM122 133.952 118 141.952 114 133.952Z" fill="#767171"/><path d="M119 181.989 119.098 191.22 117.098 191.241 117 182.011ZM122.083 189.855 118.169 197.897 114.084 189.94Z" fill="#767171"/><path d="M119 239.055 119 263.056 118 262.056 201.081 262.056 200.081 263.056 200.081 44 208.955 44 208.955 46 201.081 46 202.081 45 202.081 264.056 117 264.056 117 239.055ZM207.621 41 215.621 45 207.621 49Z" fill="#767171"/><path d="M454 122 454 135.285 452 135.285 452 122ZM457 133.952 453 141.952 449 133.952Z" fill="#767171"/><path d="M454 182.989 454.098 192.22 452.098 192.241 452 183.011ZM457.083 190.855 453.169 198.897 449.084 190.94Z" fill="#767171"/><path d="M618 65 618 74.2304 616 74.2305 616 65ZM621 72.8971 617 80.8971 613 72.8971Z" fill="#767171"/><path d="M618 122 618 135.51 616 135.51 616 122ZM621 134.177 617 142.177 613 134.177Z" fill="#767171"/><path d="M621 181.989 621.098 191.22 619.098 191.241 619 182.011ZM624.083 189.855 620.169 197.897 616.084 189.94Z" fill="#767171"/><path d="M621 238.996 621.059 254.37 619.059 254.378 619 239.004ZM624.054 253.026 620.084 261.041 616.054 253.056Z" fill="#767171"/><path d="M452 238.635 452 262.634 451 261.634 534.281 261.634 533.281 262.634 533.281 39 542.356 39 542.356 41 534.281 41 535.281 40 535.281 263.634 450 263.634 450 238.635ZM541.022 36 549.022 40 541.022 44Z" fill="#767171"/><path d="M792 122 792 135.285 790 135.285 790 122ZM795 133.952 791 141.952 787 133.952Z" fill="#767171"/><path d="M792 181.989 792.098 191.22 790.098 191.241 790 182.011ZM795.083 189.855 791.169 197.897 787.084 189.94Z" fill="#767171"/><path d="M955 65 955 74.2304 953 74.2305 953 65ZM958 72.8971 954 80.8971 950 72.8971Z" fill="#767171"/><path d="M955 121 955 134.51 953 134.51 953 121ZM958 133.177 954 141.177 950 133.177Z" fill="#767171"/><path d="M955 181.989 955.098 191.22 953.098 191.241 953 182.011ZM958.083 189.855 954.169 197.897 950.084 189.94Z" fill="#767171"/><path d="M956 237.996 956.059 253.37 954.059 253.378 954 238.004ZM959.054 252.026 955.084 260.041 951.054 252.056Z" fill="#767171"/><path d="M786 238.41 786 262.41 785 261.41 869.244 261.41 868.244 262.41 868.244 39 878.281 39 878.281 41 869.244 41 870.244 40 870.244 263.41 784 263.41 784 238.41ZM876.948 36 884.948 40 876.948 44Z" fill="#767171"/><path d="M0-1 15.4241-1 15.4241 183.998 14.4241 182.998 22.1815 182.998 22.1815 184.998 13.4241 184.998 13.4241 0 14.4241 1 0 1ZM20.8482 179.998 28.8482 183.998 20.8482 187.998Z" fill="#767171" transform="matrix(1 0 0 -1 353 280.998)"/><path d="M0-1 16.128-1 16.128 184.448 15.128 183.448 23.5894 183.448 23.5894 185.448 14.128 185.448 14.128 0 15.128 1 0 1ZM22.2561 180.448 30.2561 184.448 22.2561 188.448Z" fill="#767171" transform="matrix(1 0 0 -1 686 281.448)"/><path d="M955 300.664 955 324.663 954 323.663 1035.77 323.663 1034.77 324.663 1034.77 132 1042.34 132 1042.34 134 1035.77 134 1036.77 133 1036.77 325.663 953 325.663 953 300.664ZM1041.01 129 1049.01 133 1041.01 137Z" fill="#767171"/><rect x="382.5" y="72.5001" width="137" height="50" stroke="#2F528F" stroke-width="1.33333" stroke-miterlimit="8" fill="#8FAADC"/><text fill="#FFFFFF" font-family="Calibri,Calibri_MSFontService,sans-serif" font-weight="400" font-size="13" transform="translate(417.624 85)">Convolution<tspan font-size="13" x="-25.7467" y="16">In = 48, Out = 96, Size </tspan><tspan font-size="13" x="-4.33334" y="32">= 3, Stride = 1</tspan></text><rect x="549.5" y="15.5001" width="137" height="50" stroke="#2F528F" stroke-width="1.33333" stroke-miterlimit="8" fill="#8FAADC"/><text fill="#FFFFFF" font-family="Calibri,Calibri_MSFontService,sans-serif" font-weight="400" font-size="13" transform="translate(584.614 28)">Convolution<tspan font-size="13" x="-25.7466" y="16">In = 96, Out = 96, Size </tspan><tspan font-size="13" x="-4.33331" y="32">= 3, Stride = 1</tspan></text><rect x="716.5" y="72.5001" width="137" height="50" stroke="#2F528F" stroke-width="1.33333" stroke-miterlimit="8" fill="#8FAADC"/><text fill="#FFFFFF" font-family="Calibri,Calibri_MSFontService,sans-serif" font-weight="400" font-size="13" transform="translate(752.119 85)">Convolution<tspan font-size="13" x="-17.08" y="16">In = 96, Out = 192, </tspan><tspan font-size="13" x="-16.4133" y="32">Size = 3, Stride = 1</tspan></text><rect x="885.5" y="15.5001" width="137" height="50" stroke="#2F528F" stroke-width="1.33333" stroke-miterlimit="8" fill="#8FAADC"/><text fill="#FFFFFF" font-family="Calibri,Calibri_MSFontService,sans-serif" font-weight="400" font-size="13" transform="translate(920.952 28)">Convolution<tspan font-size="13" x="-20.5" y="16">In = 192, Out = 192, </tspan><tspan font-size="13" x="-16.4133" y="32">Size = 3, Stride = 1</tspan></text><path d="M283 66 283 75.2304 281 75.2305 281 66ZM286 73.8971 282 81.8971 278 73.8971Z" fill="#767171"/><path d="M283 122 283 135.51 281 135.51 281 122ZM286 134.177 282 142.177 278 134.177Z" fill="#767171"/><path d="M283 182.989 283.098 192.22 281.098 192.241 281 183.011ZM286.083 190.855 282.169 198.897 278.084 190.94Z" fill="#767171"/><path d="M283 238.996 283.059 254.37 281.059 254.378 281 239.004ZM286.054 253.026 282.084 261.041 278.054 253.056Z" fill="#767171"/><rect x="1049.5" y="113.5" width="137" height="40" stroke="#2F528F" stroke-width="1.33333" stroke-miterlimit="8" fill="#C38BED"/><text fill="#FFFFFF" font-family="Calibri,Calibri_MSFontService,sans-serif" font-weight="400" font-size="13" transform="translate(1090.42 137)">Flattening</text><rect x="1049.5" y="171.5" width="137" height="40" stroke="#2F528F" stroke-width="1.33333" stroke-miterlimit="8" fill="#8FAADC"/><text fill="#FFFFFF" font-family="Calibri,Calibri_MSFontService,sans-serif" font-weight="400" font-size="13" transform="translate(1074.25 187)">Fully Connected<tspan font-size="13" x="-4.83337" y="16">In = 192, Out = 10</tspan></text><path d="M0.999952-0.0097494 1.10168 10.4235-0.898229 10.443-0.999952 0.0097494ZM4.08853 9.06102 0.166719 17.0996-3.91109 9.13901Z" fill="#767171" transform="matrix(-1 0 0 1 1118.17 153)"/><path d="M0-1 96.1909-1 96.1667 67.0374 94.1667 67.0367 94.1906-0.000356875 95.1906 1 0 1ZM99.1899 65.7757 95.047 73.7027 91.1912 65.6322Z" fill="#767171" transform="matrix(1.83697e-16 1 1 -1.83697e-16 1118 211)"/></g></svg>